<svg width="28" height="40" viewBox="0 0 28 40" fill="none" xmlns="http://www.w3.org/2000/svg">
<path d="M22.935 25.0233L22.9292 25.025L22.8342 24.6692C25.915 22.1125 27.8783 18.255 27.8783 13.9392C27.8783 6.24083 21.6375 0 13.9392 0C6.24167 0 0 6.24083 0 13.9392C0 18.1917 1.91 21.9933 4.91333 24.55L4.53667 25.9558H4.5375L2.14917 34.8708L1.42083 37.5908L4.6775 36.21L4.69333 36.1583L6.87 35.2017L8.29917 37.1342L10.4158 40L11.1442 37.2783L13.6667 27.8642C13.7575 27.8658 13.8467 27.8783 13.9383 27.8783C13.9783 27.8783 14.0167 27.8725 14.0567 27.8725L16.5767 37.2783L17.3058 40L19.4233 37.1333L20.8525 35.2008L23.0292 36.1575L23.045 36.2092L26.3017 37.59L25.5733 34.87L22.935 25.0233ZM9.0225 34.4258L7.6025 32.5108L5.4125 33.4592L7.3525 26.2233C8.44583 26.8108 9.62833 27.2492 10.8725 27.5283L9.0225 34.4258ZM3.71667 13.9392C3.71667 8.29333 8.29417 3.71667 13.9392 3.71667C19.5842 3.71667 24.1617 8.29333 24.1617 13.9392C24.1617 19.5842 19.585 24.1608 13.9392 24.1608C8.29333 24.1608 3.71667 19.5842 3.71667 13.9392ZM20.12 32.5108L18.7 34.4258L16.8608 27.5675C18.1067 27.3017 19.2892 26.8658 20.3875 26.2908L22.31 33.46L20.12 32.5108Z" fill="#241F20" fill-opacity="0.7"/>
</svg>
