<svg width="60" height="60" viewBox="0 0 60 60" fill="none" xmlns="http://www.w3.org/2000/svg">
<path d="M18.0588 5C20.0808 5 21.7352 7.25 21.7352 10C21.7352 12.75 20.0808 15 18.0588 15C16.0367 15 14.3823 12.75 14.3823 10C14.3823 7.25 16.0367 5 18.0588 5ZM34.6029 22.5H23.5735V55H19.897V40H16.2205V55H12.5441V22.5H1.51465V17.5H34.6029V22.5Z" fill="black" fill-opacity="0.7"/>
<path d="M37.9411 5C39.9632 5 41.6176 7.25 41.6176 10C41.6176 12.75 39.9632 15 37.9411 15C35.919 15 34.2646 12.75 34.2646 10C34.2646 7.25 35.919 5 37.9411 5ZM54.4852 22.5H43.4558V55H39.7793V40H36.1029V55H32.4264V22.5H21.397V17.5H54.4852V22.5Z" fill="black" fill-opacity="0.7"/>
</svg>
