<svg width="72" height="72" viewBox="0 0 72 72" fill="none" xmlns="http://www.w3.org/2000/svg">
<path d="M14.4 13.5H57.6V49.5H64.8V11.25C64.8 7.54172 62.37 4.5 59.4 4.5H12.6C9.63337 4.5 7.2 7.54172 7.2 11.25V49.5H14.4V13.5ZM70.2 54H1.8C0.815625 54 0 55.0266 0 56.25V58.5C0 63.457 3.23437 67.5 7.2 67.5H64.8C68.7656 67.5 72 63.457 72 58.5V56.25C72 55.0266 71.19 54 70.2 54ZM41.1637 40.2469C41.6025 40.7953 42.1762 41.0625 42.75 41.0625C43.3237 41.0625 43.9009 40.79 44.3408 40.2407L49.7408 33.4907C50.6196 32.392 50.6196 30.6079 49.7408 29.5096L44.3408 22.7596C43.4619 21.6609 42.0379 21.6609 41.1592 22.7596C40.2804 23.8583 40.2804 25.6424 41.1592 26.7407L44.9685 31.4994L41.1592 36.2582C40.275 37.3641 40.275 39.15 41.1637 40.2469ZM30.8362 22.7672C29.9574 21.6685 28.5334 21.6685 27.6548 22.7672L22.2548 29.5172C21.3759 30.6159 21.3759 32.4 22.2548 33.4983L27.6548 40.2483C28.1025 40.7953 28.6762 41.0625 29.25 41.0625C29.8237 41.0625 30.4009 40.79 30.8408 40.2407C31.7196 39.142 31.7196 37.3579 30.8408 36.2596L27.0337 31.5L30.843 26.7413C31.6237 25.65 31.6237 23.8641 30.8362 22.7672Z" fill="black"/>
</svg>
