<svg width="17" height="21" viewBox="0 0 17 21" fill="none" xmlns="http://www.w3.org/2000/svg">
<path d="M8.49998 12.6001C10.8438 12.6001 12.7499 10.7164 12.7499 8.40008C12.7499 6.08376 10.8438 4.20005 8.49998 4.20005C6.15613 4.20005 4.25003 6.08376 4.25003 8.40008C4.25003 10.7164 6.15613 12.6001 8.49998 12.6001ZM8.49998 6.30006C9.67191 6.30006 10.625 7.24192 10.625 8.40008C10.625 9.55824 9.67191 10.5001 8.49998 10.5001C7.32806 10.5001 6.37501 9.55824 6.37501 8.40008C6.37501 7.24192 7.32806 6.30006 8.49998 6.30006ZM7.88376 20.8049C8.06358 20.9318 8.27903 21 8.5 21C8.72097 21 8.93642 20.9318 9.11624 20.8049C9.43924 20.5791 17.0307 15.1621 16.9999 8.40007C16.9999 3.76848 13.1866 0 8.5 0C3.81336 0 9.35391e-05 3.76848 9.35391e-05 8.39482C-0.0307186 15.1621 7.56076 20.5791 7.88376 20.8049ZM8.5 2.10002C12.0158 2.10002 14.8749 4.92559 14.8749 8.40532C14.8972 13.0653 10.2127 17.2495 8.5 18.6219C6.78833 17.2485 2.10276 13.0632 2.12507 8.40007C2.12507 4.92559 4.98423 2.10002 8.5 2.10002ZM8.49998 12.6001C10.8438 12.6001 12.7499 10.7164 12.7499 8.40008C12.7499 6.08376 10.8438 4.20005 8.49998 4.20005C6.15613 4.20005 4.25003 6.08376 4.25003 8.40008C4.25003 10.7164 6.15613 12.6001 8.49998 12.6001ZM8.49998 6.30006C9.67191 6.30006 10.625 7.24192 10.625 8.40008C10.625 9.55824 9.67191 10.5001 8.49998 10.5001C7.32806 10.5001 6.37501 9.55824 6.37501 8.40008C6.37501 7.24192 7.32806 6.30006 8.49998 6.30006ZM7.88376 20.8049C8.06358 20.9318 8.27903 21 8.5 21C8.72097 21 8.93642 20.9318 9.11624 20.8049C9.43924 20.5791 17.0307 15.1621 16.9999 8.40007C16.9999 3.76848 13.1866 0 8.5 0C3.81336 0 9.35391e-05 3.76848 9.35391e-05 8.39482C-0.0307186 15.1621 7.56076 20.5791 7.88376 20.8049ZM8.5 2.10002C12.0158 2.10002 14.8749 4.92559 14.8749 8.40532C14.8972 13.0653 10.2127 17.2495 8.5 18.6219C6.78833 17.2485 2.10276 13.0632 2.12507 8.40007C2.12507 4.92559 4.98423 2.10002 8.5 2.10002ZM8.49998 12.6001C10.8438 12.6001 12.7499 10.7164 12.7499 8.40008C12.7499 6.08376 10.8438 4.20005 8.49998 4.20005C6.15613 4.20005 4.25003 6.08376 4.25003 8.40008C4.25003 10.7164 6.15613 12.6001 8.49998 12.6001ZM8.49998 6.30006C9.67191 6.30006 10.625 7.24192 10.625 8.40008C10.625 9.55824 9.67191 10.5001 8.49998 10.5001C7.32806 10.5001 6.37501 9.55824 6.37501 8.40008C6.37501 7.24192 7.32806 6.30006 8.49998 6.30006ZM7.88376 20.8049C8.06358 20.9318 8.27903 21 8.5 21C8.72097 21 8.93642 20.9318 9.11624 20.8049C9.43924 20.5791 17.0307 15.1621 16.9999 8.40007C16.9999 3.76848 13.1866 0 8.5 0C3.81336 0 9.35391e-05 3.76848 9.35391e-05 8.39482C-0.0307186 15.1621 7.56076 20.5791 7.88376 20.8049ZM8.5 2.10002C12.0158 2.10002 14.8749 4.92559 14.8749 8.40532C14.8972 13.0653 10.2127 17.2495 8.5 18.6219C6.78833 17.2485 2.10276 13.0632 2.12507 8.40007C2.12507 4.92559 4.98423 2.10002 8.5 2.10002ZM8.49998 12.6001C10.8438 12.6001 12.7499 10.7164 12.7499 8.40008C12.7499 6.08376 10.8438 4.20005 8.49998 4.20005C6.15613 4.20005 4.25003 6.08376 4.25003 8.40008C4.25003 10.7164 6.15613 12.6001 8.49998 12.6001ZM8.49998 6.30006C9.67191 6.30006 10.625 7.24192 10.625 8.40008C10.625 9.55824 9.67191 10.5001 8.49998 10.5001C7.32806 10.5001 6.37501 9.55824 6.37501 8.40008C6.37501 7.24192 7.32806 6.30006 8.49998 6.30006ZM7.88376 20.8049C8.06358 20.9318 8.27903 21 8.5 21C8.72097 21 8.93642 20.9318 9.11624 20.8049C9.43924 20.5791 17.0307 15.1621 16.9999 8.40007C16.9999 3.76848 13.1866 0 8.5 0C3.81336 0 9.35391e-05 3.76848 9.35391e-05 8.39482C-0.0307186 15.1621 7.56076 20.5791 7.88376 20.8049ZM8.5 2.10002C12.0158 2.10002 14.8749 4.92559 14.8749 8.40532C14.8972 13.0653 10.2127 17.2495 8.5 18.6219C6.78833 17.2485 2.10276 13.0632 2.12507 8.40007C2.12507 4.92559 4.98423 2.10002 8.5 2.10002Z" fill="white"/>
<path d="M8.49998 12.6001C10.8438 12.6001 12.7499 10.7164 12.7499 8.40008C12.7499 6.08376 10.8438 4.20005 8.49998 4.20005C6.15613 4.20005 4.25003 6.08376 4.25003 8.40008C4.25003 10.7164 6.15613 12.6001 8.49998 12.6001ZM8.49998 6.30006C9.67191 6.30006 10.625 7.24192 10.625 8.40008C10.625 9.55824 9.67191 10.5001 8.49998 10.5001C7.32806 10.5001 6.37501 9.55824 6.37501 8.40008C6.37501 7.24192 7.32806 6.30006 8.49998 6.30006ZM7.88376 20.8049C8.06358 20.9318 8.27903 21 8.5 21C8.72097 21 8.93642 20.9318 9.11624 20.8049C9.43924 20.5791 17.0307 15.1621 16.9999 8.40007C16.9999 3.76848 13.1866 0 8.5 0C3.81336 0 9.35391e-05 3.76848 9.35391e-05 8.39482C-0.0307186 15.1621 7.56076 20.5791 7.88376 20.8049ZM8.5 2.10002C12.0158 2.10002 14.8749 4.92559 14.8749 8.40532C14.8972 13.0653 10.2127 17.2495 8.5 18.6219C6.78833 17.2485 2.10276 13.0632 2.12507 8.40007C2.12507 4.92559 4.98423 2.10002 8.5 2.10002ZM8.49998 12.6001C10.8438 12.6001 12.7499 10.7164 12.7499 8.40008C12.7499 6.08376 10.8438 4.20005 8.49998 4.20005C6.15613 4.20005 4.25003 6.08376 4.25003 8.40008C4.25003 10.7164 6.15613 12.6001 8.49998 12.6001ZM8.49998 6.30006C9.67191 6.30006 10.625 7.24192 10.625 8.40008C10.625 9.55824 9.67191 10.5001 8.49998 10.5001C7.32806 10.5001 6.37501 9.55824 6.37501 8.40008C6.37501 7.24192 7.32806 6.30006 8.49998 6.30006ZM7.88376 20.8049C8.06358 20.9318 8.27903 21 8.5 21C8.72097 21 8.93642 20.9318 9.11624 20.8049C9.43924 20.5791 17.0307 15.1621 16.9999 8.40007C16.9999 3.76848 13.1866 0 8.5 0C3.81336 0 9.35391e-05 3.76848 9.35391e-05 8.39482C-0.0307186 15.1621 7.56076 20.5791 7.88376 20.8049ZM8.5 2.10002C12.0158 2.10002 14.8749 4.92559 14.8749 8.40532C14.8972 13.0653 10.2127 17.2495 8.5 18.6219C6.78833 17.2485 2.10276 13.0632 2.12507 8.40007C2.12507 4.92559 4.98423 2.10002 8.5 2.10002ZM8.49998 12.6001C10.8438 12.6001 12.7499 10.7164 12.7499 8.40008C12.7499 6.08376 10.8438 4.20005 8.49998 4.20005C6.15613 4.20005 4.25003 6.08376 4.25003 8.40008C4.25003 10.7164 6.15613 12.6001 8.49998 12.6001ZM8.49998 6.30006C9.67191 6.30006 10.625 7.24192 10.625 8.40008C10.625 9.55824 9.67191 10.5001 8.49998 10.5001C7.32806 10.5001 6.37501 9.55824 6.37501 8.40008C6.37501 7.24192 7.32806 6.30006 8.49998 6.30006ZM7.88376 20.8049C8.06358 20.9318 8.27903 21 8.5 21C8.72097 21 8.93642 20.9318 9.11624 20.8049C9.43924 20.5791 17.0307 15.1621 16.9999 8.40007C16.9999 3.76848 13.1866 0 8.5 0C3.81336 0 9.35391e-05 3.76848 9.35391e-05 8.39482C-0.0307186 15.1621 7.56076 20.5791 7.88376 20.8049ZM8.5 2.10002C12.0158 2.10002 14.8749 4.92559 14.8749 8.40532C14.8972 13.0653 10.2127 17.2495 8.5 18.6219C6.78833 17.2485 2.10276 13.0632 2.12507 8.40007C2.12507 4.92559 4.98423 2.10002 8.5 2.10002ZM8.49998 12.6001C10.8438 12.6001 12.7499 10.7164 12.7499 8.40008C12.7499 6.08376 10.8438 4.20005 8.49998 4.20005C6.15613 4.20005 4.25003 6.08376 4.25003 8.40008C4.25003 10.7164 6.15613 12.6001 8.49998 12.6001ZM8.49998 6.30006C9.67191 6.30006 10.625 7.24192 10.625 8.40008C10.625 9.55824 9.67191 10.5001 8.49998 10.5001C7.32806 10.5001 6.37501 9.55824 6.37501 8.40008C6.37501 7.24192 7.32806 6.30006 8.49998 6.30006ZM7.88376 20.8049C8.06358 20.9318 8.27903 21 8.5 21C8.72097 21 8.93642 20.9318 9.11624 20.8049C9.43924 20.5791 17.0307 15.1621 16.9999 8.40007C16.9999 3.76848 13.1866 0 8.5 0C3.81336 0 9.35391e-05 3.76848 9.35391e-05 8.39482C-0.0307186 15.1621 7.56076 20.5791 7.88376 20.8049ZM8.5 2.10002C12.0158 2.10002 14.8749 4.92559 14.8749 8.40532C14.8972 13.0653 10.2127 17.2495 8.5 18.6219C6.78833 17.2485 2.10276 13.0632 2.12507 8.40007C2.12507 4.92559 4.98423 2.10002 8.5 2.10002Z" fill="white"/>
</svg>
