<svg width="64" height="64" viewBox="0 0 64 64" fill="none" xmlns="http://www.w3.org/2000/svg">
<g clip-path="url(#clip0_610_253)">
<path d="M62 56H61V13C61 12.2044 60.6839 11.4413 60.1213 10.8787C59.5587 10.3161 58.7956 10 58 10H47V3C47 2.20435 46.6839 1.44129 46.1213 0.87868C45.5587 0.31607 44.7956 0 44 0L20 0C19.2044 0 18.4413 0.31607 17.8787 0.87868C17.3161 1.44129 17 2.20435 17 3V9C16.7348 9 16.4804 9.10536 16.2929 9.29289C16.1054 9.48043 16 9.73478 16 10H6C5.20435 10 4.44129 10.3161 3.87868 10.8787C3.31607 11.4413 3 12.2044 3 13V56H2C1.46957 56 0.960859 56.2107 0.585786 56.5858C0.210714 56.9609 0 57.4696 0 58L0 59C0 60.3261 0.526784 61.5979 1.46447 62.5355C2.40215 63.4732 3.67392 64 5 64H59C60.3261 64 61.5979 63.4732 62.5355 62.5355C63.4732 61.5979 64 60.3261 64 59V58C64 57.4696 63.7893 56.9609 63.4142 56.5858C63.0391 56.2107 62.5304 56 62 56ZM58 12C58.2652 12 58.5196 12.1054 58.7071 12.2929C58.8946 12.4804 59 12.7348 59 13V15.5H47V12H58ZM19 3C19 2.73478 19.1054 2.48043 19.2929 2.29289C19.4804 2.10536 19.7348 2 20 2H44C44.2652 2 44.5196 2.10536 44.7071 2.29289C44.8946 2.48043 45 2.73478 45 3V4.5H42.5C41.9139 4.51309 41.3386 4.66054 40.8185 4.93101C40.2984 5.20147 39.8473 5.58772 39.5 6.06C39.246 6.42618 38.9107 6.72865 38.5204 6.94376C38.13 7.15887 37.6953 7.28079 37.25 7.3H26.75C26.303 7.28232 25.8663 7.16112 25.4741 6.94594C25.0819 6.73077 24.745 6.42749 24.49 6.06C24.1427 5.58772 23.6916 5.20147 23.1715 4.93101C22.6514 4.66054 22.0761 4.51309 21.49 4.5H19V3ZM19 11V5.5H21.5C21.947 5.51768 22.3837 5.63888 22.7759 5.85406C23.1681 6.06923 23.505 6.37251 23.76 6.74C24.1073 7.21228 24.5584 7.59853 25.0785 7.86899C25.5986 8.13946 26.1739 8.28691 26.76 8.3H37.26C37.8461 8.28691 38.4214 8.13946 38.9415 7.86899C39.4616 7.59853 39.9127 7.21228 40.26 6.74C40.513 6.37512 40.8467 6.07346 41.2352 5.85841C41.6237 5.64336 42.0565 5.52072 42.5 5.5H45V51C45 51.2652 44.8946 51.5196 44.7071 51.7071C44.5196 51.8946 44.2652 52 44 52H20C19.7348 52 19.4804 51.8946 19.2929 51.7071C19.1054 51.5196 19 51.2652 19 51V11ZM5 16.5H14C14.1326 16.5 14.2598 16.4473 14.3536 16.3536C14.4473 16.2598 14.5 16.1326 14.5 16C14.5 15.8674 14.4473 15.7402 14.3536 15.6464C14.2598 15.5527 14.1326 15.5 14 15.5H5V13C5 12.7348 5.10536 12.4804 5.29289 12.2929C5.48043 12.1054 5.73478 12 6 12H16C16 12.2652 16.1054 12.5196 16.2929 12.7071C16.4804 12.8946 16.7348 13 17 13V15C16.7348 15 16.4804 15.1054 16.2929 15.2929C16.1054 15.4804 16 15.7348 16 16V18C16 18.2652 16.1054 18.5196 16.2929 18.7071C16.4804 18.8946 16.7348 19 17 19V27.5H14.25L11.4 23.7C11.3546 23.6367 11.2944 23.5854 11.2247 23.5506C11.155 23.5157 11.0779 23.4984 11 23.5H8C7.86739 23.5 7.74021 23.5527 7.64645 23.6464C7.55268 23.7402 7.5 23.8674 7.5 24C7.5 24.1326 7.55268 24.2598 7.64645 24.3536C7.74021 24.4473 7.86739 24.5 8 24.5H10.75L13.6 28.3C13.6454 28.3633 13.7056 28.4146 13.7753 28.4494C13.845 28.4843 13.9221 28.5016 14 28.5H17V32.5H14.25L11.4 28.7C11.3546 28.6367 11.2944 28.5854 11.2247 28.5506C11.155 28.5157 11.0779 28.4984 11 28.5H8C7.86739 28.5 7.74021 28.5527 7.64645 28.6464C7.55268 28.7402 7.5 28.8674 7.5 29C7.5 29.1326 7.55268 29.2598 7.64645 29.3536C7.74021 29.4473 7.86739 29.5 8 29.5H10.75L13.6 33.3C13.6454 33.3633 13.7056 33.4146 13.7753 33.4494C13.845 33.4843 13.9221 33.5016 14 33.5H17V37.5H14C13.9221 37.4984 13.845 37.5157 13.7753 37.5506C13.7056 37.5854 13.6454 37.6367 13.6 37.7L10.75 41.5H8C7.86739 41.5 7.74021 41.5527 7.64645 41.6464C7.55268 41.7402 7.5 41.8674 7.5 42C7.5 42.1326 7.55268 42.2598 7.64645 42.3536C7.74021 42.4473 7.86739 42.5 8 42.5H11C11.0779 42.5016 11.155 42.4843 11.2247 42.4494C11.2944 42.4146 11.3546 42.3633 11.4 42.3L14.25 38.5H17V43.5H14C13.9221 43.4984 13.845 43.5157 13.7753 43.5506C13.7056 43.5854 13.6454 43.6367 13.6 43.7L10.75 47.5H8C7.86739 47.5 7.74021 47.5527 7.64645 47.6464C7.55268 47.7402 7.5 47.8674 7.5 48C7.5 48.1326 7.55268 48.2598 7.64645 48.3536C7.74021 48.4473 7.86739 48.5 8 48.5H11C11.0779 48.5016 11.155 48.4843 11.2247 48.4494C11.2944 48.4146 11.3546 48.3633 11.4 48.3L14.25 44.5H17V51C17 51.7956 17.3161 52.5587 17.8787 53.1213C18.4413 53.6839 19.2044 54 20 54H44C44.7956 54 45.5587 53.6839 46.1213 53.1213C46.6839 52.5587 47 51.7956 47 51V44.5H49.75L52.6 48.3C52.6454 48.3633 52.7056 48.4146 52.7753 48.4494C52.845 48.4843 52.9221 48.5016 53 48.5H56C56.1326 48.5 56.2598 48.4473 56.3536 48.3536C56.4473 48.2598 56.5 48.1326 56.5 48C56.5 47.8674 56.4473 47.7402 56.3536 47.6464C56.2598 47.5527 56.1326 47.5 56 47.5H53.25L50.4 43.7C50.3546 43.6367 50.2944 43.5854 50.2247 43.5506C50.155 43.5157 50.0779 43.4984 50 43.5H47V38.5H49.75L52.6 42.3C52.6454 42.3633 52.7056 42.4146 52.7753 42.4494C52.845 42.4843 52.9221 42.5016 53 42.5H56C56.1326 42.5 56.2598 42.4473 56.3536 42.3536C56.4473 42.2598 56.5 42.1326 56.5 42C56.5 41.8674 56.4473 41.7402 56.3536 41.6464C56.2598 41.5527 56.1326 41.5 56 41.5H53.25L50.4 37.7C50.3546 37.6367 50.2944 37.5854 50.2247 37.5506C50.155 37.5157 50.0779 37.4984 50 37.5H47V33.5H50C50.0779 33.5016 50.155 33.4843 50.2247 33.4494C50.2944 33.4146 50.3546 33.3633 50.4 33.3L53.25 29.5H56C56.1326 29.5 56.2598 29.4473 56.3536 29.3536C56.4473 29.2598 56.5 29.1326 56.5 29C56.5 28.8674 56.4473 28.7402 56.3536 28.6464C56.2598 28.5527 56.1326 28.5 56 28.5H53C52.9221 28.4984 52.845 28.5157 52.7753 28.5506C52.7056 28.5854 52.6454 28.6367 52.6 28.7L49.75 32.5H47V28.5H50C50.0779 28.5016 50.155 28.4843 50.2247 28.4494C50.2944 28.4146 50.3546 28.3633 50.4 28.3L53.25 24.5H56C56.1326 24.5 56.2598 24.4473 56.3536 24.3536C56.4473 24.2598 56.5 24.1326 56.5 24C56.5 23.8674 56.4473 23.7402 56.3536 23.6464C56.2598 23.5527 56.1326 23.5 56 23.5H53C52.9221 23.4984 52.845 23.5157 52.7753 23.5506C52.7056 23.5854 52.6454 23.6367 52.6 23.7L49.75 27.5H47V16.5H59V56H5V16.5ZM38.3 58L38.15 58.15C37.45 58.84 36.79 59.5 36 59.5H28C27.21 59.5 26.55 58.84 25.85 58.15L25.7 58H38.3ZM62 59C62 59.7956 61.6839 60.5587 61.1213 61.1213C60.5587 61.6839 59.7956 62 59 62H5C4.20435 62 3.44129 61.6839 2.87868 61.1213C2.31607 60.5587 2 59.7956 2 59V58H24.22C24.545 58.2665 24.8554 58.5503 25.15 58.85C25.4894 59.3028 25.9168 59.6824 26.4065 59.966C26.8963 60.2495 27.4383 60.4312 28 60.5H36C36.5617 60.4312 37.1037 60.2495 37.5935 59.966C38.0832 59.6824 38.5106 59.3028 38.85 58.85C39.1446 58.5503 39.455 58.2665 39.78 58H62V59Z" fill="white"/>
<path d="M32 6C32.5523 6 33 5.55228 33 5C33 4.44772 32.5523 4 32 4C31.4477 4 31 4.44772 31 5C31 5.55228 31.4477 6 32 6Z" fill="white"/>
<path d="M36 6C36.5523 6 37 5.55228 37 5C37 4.44772 36.5523 4 36 4C35.4477 4 35 4.44772 35 5C35 5.55228 35.4477 6 36 6Z" fill="white"/>
<path d="M28 6C28.5523 6 29 5.55228 29 5C29 4.44772 28.5523 4 28 4C27.4477 4 27 4.44772 27 5C27 5.55228 27.4477 6 28 6Z" fill="white"/>
<path d="M27 38.73C27.0954 38.7268 27.1883 38.6993 27.27 38.65C27.3813 38.5783 27.4595 38.4654 27.4876 38.336C27.5158 38.2067 27.4914 38.0715 27.42 37.96C26.7432 36.9062 26.4471 35.6527 26.5808 34.4074C26.7144 33.1622 27.2698 32 28.1548 31.1139C29.0398 30.2277 30.2012 29.6707 31.4463 29.5355C32.6914 29.4002 33.9453 29.6946 35 30.37C35.1115 30.4414 35.2467 30.4658 35.376 30.4376C35.5054 30.4095 35.6183 30.3313 35.69 30.22C35.762 30.107 35.7866 29.9703 35.7585 29.8393C35.7304 29.7083 35.6519 29.5936 35.54 29.52C34.5569 28.8816 33.4193 28.5209 32.2479 28.4762C31.0765 28.4314 29.9148 28.7044 28.8858 29.266C27.8569 29.8276 26.9989 30.6571 26.4029 31.6665C25.8068 32.6759 25.4949 33.8278 25.5 35C25.4887 36.2387 25.836 37.4543 26.5 38.5C26.5517 38.5831 26.6267 38.6491 26.7155 38.69C26.8044 38.7309 26.9033 38.7448 27 38.73V38.73Z" fill="white"/>
<path d="M32 40.5001C31.4184 40.5023 30.8405 40.4077 30.29 40.2201C30.164 40.1791 30.0269 40.1897 29.9088 40.2497C29.7907 40.3097 29.7012 40.4142 29.66 40.5401C29.6381 40.6017 29.6287 40.6672 29.6325 40.7325C29.6363 40.7979 29.6532 40.8618 29.6821 40.9205C29.711 40.9792 29.7513 41.0316 29.8008 41.0744C29.8502 41.1173 29.9078 41.1498 29.97 41.1701C30.6149 41.3858 31.29 41.4972 31.97 41.5001C32.997 41.5047 34.0105 41.2655 34.9271 40.8021C35.8437 40.3388 36.6372 39.6645 37.2425 38.8347C37.8477 38.0049 38.2474 37.0434 38.4086 36.0291C38.5699 35.0147 38.4881 33.9766 38.17 33.0001C38.1288 32.8742 38.0393 32.7697 37.9212 32.7097C37.8031 32.6497 37.666 32.6391 37.54 32.6801C37.4149 32.7255 37.312 32.8172 37.2524 32.9363C37.1929 33.0554 37.1813 33.1927 37.22 33.3201C37.4036 33.8612 37.4982 34.4286 37.5 35.0001C37.4974 36.458 36.917 37.8554 35.8862 38.8862C34.8553 39.9171 33.4579 40.4974 32 40.5001V40.5001Z" fill="white"/>
<path d="M32 37.5C32.4945 37.5 32.9778 37.3534 33.3889 37.0787C33.8001 36.804 34.1205 36.4135 34.3097 35.9567C34.4989 35.4999 34.5484 34.9972 34.452 34.5123C34.3555 34.0273 34.1174 33.5819 33.7678 33.2322C33.4181 32.8826 32.9727 32.6445 32.4877 32.548C32.0028 32.4516 31.5001 32.5011 31.0433 32.6903C30.5865 32.8795 30.196 33.1999 29.9213 33.6111C29.6466 34.0222 29.5 34.5055 29.5 35C29.5 35.663 29.7634 36.2989 30.2322 36.7678C30.7011 37.2366 31.337 37.5 32 37.5ZM32 33.5C32.2967 33.5 32.5867 33.588 32.8334 33.7528C33.08 33.9176 33.2723 34.1519 33.3858 34.426C33.4993 34.7001 33.5291 35.0017 33.4712 35.2926C33.4133 35.5836 33.2704 35.8509 33.0607 36.0607C32.8509 36.2704 32.5836 36.4133 32.2926 36.4712C32.0017 36.5291 31.7001 36.4994 31.426 36.3858C31.1519 36.2723 30.9176 36.08 30.7528 35.8334C30.588 35.5867 30.5 35.2967 30.5 35C30.5 34.6022 30.658 34.2206 30.9393 33.9393C31.2206 33.658 31.6022 33.5 32 33.5Z" fill="white"/>
</g>
<defs>
<clipPath id="clip0_610_253">
<rect width="64" height="64" fill="white"/>
</clipPath>
</defs>
</svg>
