<svg width="40" height="40" viewBox="0 0 40 40" fill="none" xmlns="http://www.w3.org/2000/svg">
<path d="M39.9479 0.727035C39.6912 4.60675 38.9718 8.39214 37.6006 12.0388C36.3964 15.2414 34.8125 18.2417 32.664 20.9171C30.9642 23.0336 28.9409 24.8003 26.5834 26.1506C25.8183 26.5888 25.445 27.1175 25.6596 27.9809C25.9733 29.2417 25.4045 30.2097 24.6838 31.1556C22.3951 34.1595 19.672 36.6896 16.5119 38.7572C15.7801 39.2361 15.0834 39.7652 14.2039 39.956C13.6989 40.0657 13.5783 39.9924 13.6037 39.4828C13.6442 38.6758 13.9075 37.9087 14.0784 37.1258C14.4582 35.3865 14.8626 33.6527 15.2429 31.9137C15.3002 31.6519 15.4276 31.3229 15.1743 31.1243C14.9402 30.9408 14.6613 31.1258 14.4164 31.2223C14.1784 31.316 13.945 31.4234 13.7153 31.5365C13.2114 31.7847 12.7572 31.7025 12.3082 31.3831C11.5703 30.8583 10.9742 30.1833 10.3417 29.5493C9.76667 28.9729 9.173 28.4121 8.6672 27.7671C8.27974 27.273 8.20979 26.7698 8.49349 26.2091C8.63014 25.9391 8.76195 25.6646 8.86788 25.3815C9.07421 24.8296 8.91047 24.6184 8.33149 24.7166C7.78122 24.81 7.23836 24.947 6.69295 25.068C4.79605 25.4889 2.89929 25.9108 1.00279 26.3337C0.761955 26.3875 0.522198 26.4046 0.276241 26.373C0.034867 26.342 -0.0315753 26.2194 0.012899 25.9873C0.130823 25.3729 0.358586 24.8003 0.703869 24.285C2.28123 21.9308 3.93945 19.6405 6.03837 17.7084C7.23001 16.6114 8.43405 15.5293 9.81141 14.6634C10.3413 14.3301 10.9163 14.1928 11.5463 14.2839C11.9145 14.3371 12.2878 14.3598 12.6597 14.382C13.0276 14.4041 13.3025 14.2516 13.5024 13.9314C13.9894 13.1516 14.4781 12.3733 15.0153 11.6248C16.1157 10.0916 17.3929 8.72616 18.8513 7.53371C22.1614 4.82691 25.9264 2.98286 29.9881 1.7101C33.1637 0.715043 36.4304 0.241027 39.7389 0.00240241C39.9758 -0.0147096 40.0292 0.0579151 39.9867 0.274308C39.9584 0.422388 39.9599 0.576126 39.9479 0.727035ZM29.1906 14.0603C30.9662 14.0922 32.478 12.6145 32.4975 10.8281C32.5176 8.99227 31.0878 7.49814 29.2788 7.46432C27.4214 7.42969 25.9289 8.8741 25.8982 10.7365C25.868 12.5611 27.3196 14.0267 29.1906 14.0603Z" fill="white"/>
<path d="M10.6232 31.9026C11.0662 32.2724 11.1569 32.7335 11.1784 33.1987C11.2503 34.7581 10.3041 36.744 8.06516 36.9747C6.56975 37.1287 5.07325 37.2578 3.57204 37.3239C2.95533 37.3511 2.67096 37.0424 2.68376 36.4282C2.68767 36.2418 2.69387 36.0553 2.70735 35.8694C2.80627 34.4998 2.86732 33.1264 3.05748 31.7651C3.33781 29.7593 5.5033 28.3684 7.4277 28.9467C7.50546 28.9702 7.5843 28.9937 7.65748 29.0282C7.80519 29.0976 8.01341 29.1698 8.02042 29.3235C8.02823 29.4966 7.79171 29.4567 7.66638 29.5133C6.69427 29.9527 6.1095 30.7504 5.68915 31.6815C5.29387 32.5569 5.18902 33.4918 5.22244 34.4467C5.23039 34.6748 5.30573 34.7655 5.54697 34.7761C7.16328 34.8467 8.61395 34.4568 9.81233 33.311C10.2096 32.931 10.4769 32.4811 10.6232 31.9026Z" fill="white"/>
</svg>
