<svg width="72" height="72" viewBox="0 0 72 72" fill="none" xmlns="http://www.w3.org/2000/svg">
<path d="M65.25 20.25H49.5C45.675 20.25 42.75 23.175 42.75 27V60.75C42.75 64.575 45.675 67.5 49.5 67.5H65.25C69.075 67.5 72 64.575 72 60.75V27C72 23.175 69.075 20.25 65.25 20.25ZM60.75 60.75H54C52.65 60.75 51.75 59.85 51.75 58.5C51.75 57.15 52.65 56.25 54 56.25H60.75C62.1 56.25 63 57.15 63 58.5C63 59.85 62.1 60.75 60.75 60.75ZM67.5 49.5H47.25V27C47.25 25.65 48.15 24.75 49.5 24.75H65.25C66.6 24.75 67.5 25.65 67.5 27V49.5Z" fill="black"/>
<path d="M38.2499 40.5H11.2499V15.75H49.4999H51.7499H56.2499V13.5C56.2499 12.15 55.3499 11.25 53.9999 11.25H8.99994C7.64994 11.25 6.74994 12.15 6.74994 13.5V40.5C5.84994 40.5 4.94994 40.95 4.72494 41.85L0.224941 53.1C-5.93513e-05 53.775 -5.93513e-05 54.675 0.449941 55.125C0.899941 55.575 1.57494 56.25 2.24994 56.25H38.2499V40.5Z" fill="black"/>
</svg>
