<svg width="28" height="40" viewBox="0 0 28 40" fill="none" xmlns="http://www.w3.org/2000/svg">
<path d="M8.00002 26.6491C5.12807 25.2868 2.8052 22.9878 1.4134 20.13C0.0215945 17.2723 -0.356281 14.0259 0.341912 10.9249C1.0401 7.82387 2.7728 5.05274 5.25505 3.06722C7.73731 1.0817 10.8214 0 14 0C17.1787 0 20.2627 1.0817 22.745 3.06722C25.2272 5.05274 26.9599 7.82387 27.6581 10.9249C28.3563 14.0259 27.9784 17.2723 26.5866 20.13C25.1948 22.9878 22.872 25.2868 20 26.6491V31.9891H8.00002V26.6491ZM8.00002 33.9891H20V36.9891C20 38.6491 18.66 39.9891 17 39.9891H11C10.2044 39.9891 9.4413 39.673 8.87869 39.1104C8.31609 38.5478 8.00002 37.7848 8.00002 36.9891V33.9891ZM12 23.7891V27.9891H16V23.7891C18.4281 23.2935 20.5857 21.9139 22.0544 19.9179C23.5232 17.9219 24.1985 15.4517 23.9494 12.9861C23.7003 10.5205 22.5446 8.23516 20.7063 6.57324C18.868 4.91131 16.4782 3.99115 14 3.99115C11.5219 3.99115 9.13198 4.91131 7.29371 6.57324C5.45544 8.23516 4.29973 10.5205 4.05065 12.9861C3.80158 15.4517 4.47687 17.9219 5.94562 19.9179C7.41437 21.9139 9.57193 23.2935 12 23.7891V23.7891Z" fill="black" fill-opacity="0.7"/>
</svg>
